<svg xmlns:mydata="http://www.w3.org/2000/svg" mydata:contrastcolor="E9A2B2" mydata:template="default" mydata:presentation="2.5" mydata:layoutType="" mydata:specialFontId="" mydata:id1="381" mydata:id2="009" mydata:companyName="Olympic Nantais" mydata:companyTagline="" version="1.1" xmlns="http://www.w3.org/2000/svg" xmlns:xlink="http://www.w3.org/1999/xlink" width="550" height="940"><g fill="#000000" fill-rule="nonzero" stroke="none" stroke-width="1" stroke-linecap="butt" stroke-linejoin="miter" stroke-miterlimit="10" stroke-dasharray="" stroke-dashoffset="0" font-family="none" font-weight="none" font-size="none" text-anchor="none" style="mix-blend-mode: normal"><g><g><path d="M117.06214,233.33669l16.7673,-55.79937c-6.01668,-5.2226 -13.01069,-7.8339 -20.98203,-7.8339c-1.58816,0 -3.09997,0.12216 -4.53542,0.3665l-16.49242,55.61612c5.98614,5.31423 12.99542,7.97134 21.02784,7.97134c1.43545,0 2.84036,-0.1069 4.21473,-0.32069zM89.62058,178.45357c6.44426,-6.41372 14.18654,-9.62058 23.22683,-9.62058c9.07083,0 16.81311,3.20686 23.22683,9.62058c6.41372,6.41372 9.62058,14.156 9.62058,23.22683c0,9.04029 -3.20686,16.78257 -9.62058,23.22683c-6.41372,6.41372 -14.156,9.62058 -23.22683,9.62058c-9.04029,0 -16.78257,-3.20686 -23.22683,-9.62058c-6.41372,-6.44426 -9.62058,-14.18654 -9.62058,-23.22683c0,-9.07083 3.20686,-16.81311 9.62058,-23.22683z"></path><path d="M154.62822,168.8788h18.55398v64.77857h18.78304v0.87043h-37.33701z"></path><path d="M219.4526,168.42068h20.93621l-0.18325,0.59556l-19.42441,65.51157h-20.24903l0.18325,-0.54975c0.06108,-0.30542 3.22213,-11.45307 9.48314,-33.44297l-9.20827,-32.11441h0.96206l8.70433,30.46517l8.65852,-30.14448z"></path><path d="M288.99565,168.69555h20.24903v65.83226h-0.87043v-63.17514l-18.78304,63.17514h-20.66134l-0.09162,-0.32069l-18.78304,-63.22096v63.54164h-0.87043v-65.83226h20.34066l0.09162,0.27487l9.66639,32.11441zM279.74157,202.59664l9.25408,30.92329l18.96629,-63.95395h-18.32491zM250.55915,169.56598l18.96629,63.95395l9.29989,-30.92329l-9.94127,-33.03066zM279.28345,204.10845l-8.88758,29.54893h17.72935z"></path><path d="M336.45718,221.24224c2.90144,1.00787 5.83343,1.51181 8.79596,1.51181c7.29942,0 13.52989,-2.58076 18.69141,-7.74228c5.19206,-5.19206 7.78809,-11.4378 7.78809,-18.73722c0,-7.29943 -2.59603,-13.5299 -7.78809,-18.69141c-5.16152,-5.19206 -11.39199,-7.78809 -18.69141,-7.78809c-3.02361,0 -5.9556,0.50393 -8.79596,1.51181zM335.58675,220.92156v-49.24821c-5.03935,1.9852 -9.10137,5.2226 -12.18607,9.7122c-3.08469,4.52014 -4.62704,9.48314 -4.62704,14.88899c0,5.52801 1.57289,10.5521 4.71867,15.07224c3.08469,4.39798 7.11618,7.58957 12.09444,9.57477zM335.58675,233.65737v-11.81957c-4.15365,-1.55762 -7.71174,-4.00094 -10.67426,-7.32997c-2.99307,-3.32903 -5.03935,-7.16199 -6.13885,-11.49888v30.64842zM335.86162,170.57385c3.02361,-1.09949 6.15412,-1.64924 9.39152,-1.64924c7.54375,0 13.98802,2.67239 19.33279,8.01715c5.34476,5.34476 8.01715,11.78903 8.01715,19.33279c0,7.54375 -2.67239,13.98802 -8.01715,19.33278c-5.34477,5.34477 -11.78903,8.01715 -19.33279,8.01715c-2.96253,0 -5.89451,-0.48866 -8.79596,-1.46599v12.36932h-18.55398v-38.25326c0,-5.71126 1.64924,-10.93386 4.94773,-15.6678c3.29848,-4.70339 7.63538,-8.04769 13.01069,-10.03289z"></path><path d="M381.16998,234.52781v-65.64901h18.37073v65.64901z"></path><path d="M469.267,219.36394l0.733,0.50393c-3.05415,4.58123 -7.00928,8.16986 -11.86538,10.76589c-4.82556,2.59603 -10.00235,3.89404 -15.53037,3.89404c-9.07083,0 -16.81311,-3.22213 -23.22683,-9.66639c-6.44426,-6.41372 -9.66639,-14.156 -9.66639,-23.22683c0,-9.07084 3.22213,-16.82838 9.66639,-23.27264c6.41372,-6.41372 14.156,-9.62058 23.22683,-9.62058c5.40585,0 10.50628,1.2522 15.3013,3.75661c4.76448,2.5044 8.70433,5.98614 11.81957,10.4452l-0.77881,0.50394c-2.96253,-4.33689 -6.78022,-7.727 -11.45307,-10.17033c-4.64231,-2.44332 -9.60531,-3.66498 -14.88899,-3.66498c-1.6187,0 -3.14578,0.12216 -4.58123,0.3665l-16.72148,55.52449c6.04722,5.43639 13.14813,8.15459 21.30271,8.15459c5.37531,0 10.41466,-1.26747 15.11805,-3.80242c4.73394,-2.5044 8.58217,-6.00141 11.5447,-10.49101z"></path></g><path d="M228.08682,300.84742c0,0.20462 -0.06886,0.37776 -0.20658,0.51941c-0.13772,0.14166 -0.30889,0.21249 -0.51351,0.21249c-0.20462,0 -0.37776,-0.07083 -0.51941,-0.21249c-0.14166,-0.14166 -0.21249,-0.3148 -0.21249,-0.51941v-17.42395c0,-0.20462 0.07083,-0.37775 0.21249,-0.51941c0.14166,-0.14166 0.3148,-0.21249 0.51941,-0.21249c0.22823,0 0.41317,0.08657 0.55483,0.25971l12.27704,15.78308v-15.31088c0,-0.20462 0.07083,-0.37775 0.21249,-0.51941c0.14166,-0.14166 0.3148,-0.21249 0.51941,-0.21249c0.19675,0 0.36595,0.07083 0.50761,0.21249c0.14166,0.14166 0.21249,0.3148 0.21249,0.51941v17.42395c0,0.20462 -0.07083,0.37776 -0.21249,0.51941c-0.14166,0.14166 -0.31086,0.21249 -0.50761,0.21249c-0.2361,0 -0.4171,-0.07083 -0.54302,-0.21249l-12.30065,-15.81849zM247.72245,294.80334l-2.46721,6.3274c-0.04722,0.11018 -0.10231,0.19675 -0.16527,0.25971c-0.13379,0.12592 -0.30299,0.18888 -0.50761,0.18888c-0.20462,0 -0.37776,-0.07083 -0.51941,-0.21249c-0.14166,-0.14166 -0.21249,-0.3148 -0.21249,-0.51941c0,-0.10231 0.02361,-0.20855 0.07083,-0.31873l6.74057,-17.31771c0.04722,-0.12592 0.11018,-0.23216 0.18888,-0.31873c0.13379,-0.13379 0.30299,-0.20068 0.50761,-0.20068c0.20462,0 0.37776,0.07083 0.51941,0.21249c0.0787,0.0787 0.14166,0.18101 0.18888,0.30693l6.72876,17.31771c0.04722,0.11018 0.07083,0.21642 0.07083,0.31873c0,0.20462 -0.07083,0.37776 -0.21249,0.51941c-0.14166,0.14166 -0.31086,0.21249 -0.50761,0.21249c-0.20462,0 -0.37382,-0.05902 -0.50761,-0.17707c-0.07083,-0.07083 -0.12985,-0.16133 -0.17707,-0.27151l-2.45541,-6.3274h-7.28359M254.43941,293.35135l-3.08106,-7.93286l-3.06926,7.93286zM262.5181,300.84742c0,0.20462 -0.06886,0.37776 -0.20658,0.51941c-0.13772,0.14166 -0.30889,0.21249 -0.51351,0.21249c-0.20462,0 -0.37775,-0.07083 -0.51941,-0.21249c-0.14166,-0.14166 -0.21249,-0.3148 -0.21249,-0.51941v-17.42395c0,-0.20462 0.07083,-0.37775 0.21249,-0.51941c0.14166,-0.14166 0.3148,-0.21249 0.51941,-0.21249c0.22823,0 0.41317,0.08657 0.55483,0.25971l12.27704,15.78308v-15.31088c0,-0.20462 0.07083,-0.37775 0.21249,-0.51941c0.14166,-0.14166 0.3148,-0.21249 0.51941,-0.21249c0.19675,0 0.36595,0.07083 0.50761,0.21249c0.14166,0.14166 0.21249,0.3148 0.21249,0.51941v17.42395c0,0.20462 -0.07083,0.37776 -0.21249,0.51941c-0.14166,0.14166 -0.31086,0.21249 -0.50761,0.21249c-0.2361,0 -0.4171,-0.07083 -0.54302,-0.21249l-12.30065,-15.81849zM279.01365,284.14357c-0.19675,0 -0.36595,-0.07083 -0.50761,-0.21249c-0.14166,-0.14166 -0.21249,-0.31086 -0.21249,-0.50761c0,-0.20462 0.07083,-0.37775 0.21249,-0.51941c0.14166,-0.14166 0.31086,-0.21249 0.50761,-0.21249h12.59577c0.20462,0 0.37775,0.07083 0.51941,0.21249c0.14166,0.14166 0.21249,0.3148 0.21249,0.51941c0,0.19675 -0.07083,0.36595 -0.21249,0.50761c-0.14166,0.14166 -0.3148,0.21249 -0.51941,0.21249h-5.57189v16.70386c0,0.20462 -0.06886,0.37776 -0.20658,0.51941c-0.13772,0.14166 -0.30889,0.21249 -0.51351,0.21249c-0.20462,0 -0.37775,-0.07083 -0.51941,-0.21249c-0.14166,-0.14166 -0.21249,-0.3148 -0.21249,-0.51941v-16.70386zM293.72666,294.80334l-2.46721,6.3274c-0.04722,0.11018 -0.10231,0.19675 -0.16527,0.25971c-0.13379,0.12592 -0.30299,0.18888 -0.50761,0.18888c-0.20462,0 -0.37775,-0.07083 -0.51941,-0.21249c-0.14166,-0.14166 -0.21249,-0.3148 -0.21249,-0.51941c0,-0.10231 0.02361,-0.20855 0.07083,-0.31873l6.74057,-17.31771c0.04722,-0.12592 0.11018,-0.23216 0.18888,-0.31873c0.13379,-0.13379 0.30299,-0.20068 0.50761,-0.20068c0.20462,0 0.37775,0.07083 0.51941,0.21249c0.0787,0.0787 0.14166,0.18101 0.18888,0.30693l6.72876,17.31771c0.04722,0.11018 0.07083,0.21642 0.07083,0.31873c0,0.20462 -0.07083,0.37776 -0.21249,0.51941c-0.14166,0.14166 -0.31086,0.21249 -0.50761,0.21249c-0.20462,0 -0.37382,-0.05902 -0.50761,-0.17707c-0.07083,-0.07083 -0.12985,-0.16133 -0.17707,-0.27151l-2.45541,-6.3274h-7.28359M300.44362,293.35135l-3.08106,-7.93286l-3.06926,7.93286zM308.22719,283.42347c0,-0.20462 0.06886,-0.37775 0.20658,-0.51941c0.13772,-0.14166 0.30889,-0.21249 0.51351,-0.21249c0.20462,0 0.37775,0.07083 0.51941,0.21249c0.14166,0.14166 0.21249,0.3148 0.21249,0.51941v17.42395c0,0.20462 -0.07083,0.37776 -0.21249,0.51941c-0.14166,0.14166 -0.3148,0.21249 -0.51941,0.21249c-0.20462,0 -0.37579,-0.07083 -0.51351,-0.21249c-0.13772,-0.14166 -0.20658,-0.3148 -0.20658,-0.51941zM313.10677,299.04128c-0.10231,-0.13379 -0.15346,-0.28332 -0.15346,-0.44858c0,-0.20462 0.06886,-0.37775 0.20658,-0.51941c0.13772,-0.14166 0.30889,-0.21249 0.51351,-0.21249c0.25971,0 0.46826,0.11018 0.62566,0.33054c0.10231,0.14953 0.22036,0.30693 0.35415,0.47219c0.35415,0.40923 0.78305,0.74961 1.28673,1.02112c0.50367,0.27151 1.13327,0.41907 1.88878,0.44268c0.98374,0 1.86123,-0.3266 2.63248,-0.9798c0.4171,-0.36202 0.76338,-0.79683 1.03883,-1.30444c0.27545,-0.50761 0.41317,-1.1313 0.41317,-1.87107c0,-0.99161 -0.3266,-1.86517 -0.9798,-2.62068c-0.70042,-0.76338 -1.633,-1.24344 -2.79775,-1.44019c-1.43232,-0.26758 -2.47902,-0.80666 -3.14009,-1.61726c-0.34628,-0.42497 -0.61385,-0.88536 -0.80273,-1.38117c-0.18888,-0.4958 -0.28332,-1.01522 -0.28332,-1.55824c0.01574,-1.47167 0.55483,-2.65609 1.61726,-3.55326c0.85782,-0.73977 1.8573,-1.10966 2.99843,-1.10966c1.32214,0 2.48689,0.54696 3.49423,1.64087c0.17314,0.20462 0.32267,0.41317 0.44858,0.62566c0.07083,0.11805 0.10624,0.25184 0.10624,0.40136c0,0.19675 -0.07083,0.36595 -0.21249,0.50761c-0.14166,0.14166 -0.31086,0.21249 -0.50761,0.21249c-0.22823,0 -0.38956,-0.06296 -0.484,-0.18888c-0.12592,-0.17314 -0.27938,-0.36989 -0.46039,-0.59024c-0.59024,-0.69255 -1.30247,-1.06637 -2.13668,-1.12146c-0.85782,-0.05509 -1.62513,0.19675 -2.30194,0.75551c-0.67681,0.56663 -1.04276,1.27099 -1.09785,2.11307c-0.03148,0.43284 0.0118,0.84208 0.12985,1.2277c0.11805,0.38562 0.31873,0.74371 0.60205,1.07424c0.51941,0.5745 1.37723,0.97193 2.57346,1.19229c1.44806,0.27545 2.57346,0.89717 3.37619,1.86517c0.4171,0.51154 0.73977,1.06637 0.968,1.66448c0.22823,0.59811 0.34234,1.2159 0.34234,1.85336c-0.01574,1.08605 -0.19871,1.9537 -0.54893,2.60297c-0.35021,0.64927 -0.82044,1.2218 -1.41068,1.7176c-1.05457,0.8893 -2.24292,1.33395 -3.56506,1.33395c-1.66055,0 -3.09287,-0.65714 -4.29696,-1.97141c-0.13379,-0.14953 -0.27938,-0.33841 -0.43678,-0.56663z"></path><path d="M80,262.38884v-1.41818h390v1.41818z"></path></g></g></svg>